<svg xmlns="http://www.w3.org/2000/svg" viewBox="0 0 1600 980" role="img" aria-labelledby="title description" font-family="-apple-system, BlinkMacSystemFont, 'Segoe UI', 'Noto Sans', Arial, sans-serif">
  <title id="title">Arquitetura do OwnMem</title>
  <desc id="description">Markdown pertencente ao repositório e trust receipts independentes são compilados em snapshots imutáveis. Cinco canais locais determinísticos e embedding opcional passam por quatro portões de entrega. No fim do turno, um coordenador reproduz, promove, observa, isola e reverte com precisão mudanças R0 de baixo risco; riscos maiores ficam para revisão.</desc>
  <defs>
    <marker id="arrow" viewBox="0 0 10 10" refX="8" refY="5" markerWidth="7" markerHeight="7" orient="auto-start-reverse"><path d="M 0 1 L 8 5 L 0 9 z" fill="#526176"/></marker>
    <marker id="arrowBlue" viewBox="0 0 10 10" refX="8" refY="5" markerWidth="7" markerHeight="7" orient="auto-start-reverse"><path d="M 0 1 L 8 5 L 0 9 z" fill="#2563eb"/></marker>
  </defs>
  <rect x="0" y="0" width="1600" height="980" rx="28" fill="#f4f7ff"/>
  <text x="52" y="58" text-anchor="start" font-size="27" font-weight="750" fill="#0f172a">Arquitetura do OwnMem</text>
  <text x="52" y="88" text-anchor="start" font-size="14" font-weight="500" fill="#526176">Memória do repositório · recall local · evidência · autonomia limitada</text>
  <rect x="1130" y="34" width="418" height="44" rx="22" fill="#eff6ff" stroke="#2563eb" stroke-width="1.4"/>
  <text x="1339" y="62" text-anchor="middle" font-size="13" font-weight="650" fill="#2563eb">Recall padrão: 0 modelos · 0 rede</text>
  <rect x="52" y="120" width="1496" height="108" rx="18" fill="#ffffff" stroke="#cbd5e1" stroke-width="1.4"/>
  <text x="78" y="150" text-anchor="start" font-size="12" font-weight="750" fill="#526176">CAMADA DE HOSTS</text>
  <rect x="78" y="168" width="160" height="38" rx="10" fill="#f8fafc" stroke="#cbd5e1" stroke-width="1.4"/>
  <text x="158" y="192" text-anchor="middle" font-size="12.5" font-weight="650" fill="#0f172a">Claude Code</text>
  <rect x="250" y="168" width="136" height="38" rx="10" fill="#f8fafc" stroke="#cbd5e1" stroke-width="1.4"/>
  <text x="318" y="192" text-anchor="middle" font-size="12.5" font-weight="650" fill="#0f172a">Codex</text>
  <rect x="402" y="168" width="136" height="38" rx="10" fill="#f8fafc" stroke="#cbd5e1" stroke-width="1.4"/>
  <text x="470" y="192" text-anchor="middle" font-size="12.5" font-weight="650" fill="#0f172a">Cursor</text>
  <rect x="554" y="168" width="160" height="38" rx="10" fill="#f8fafc" stroke="#cbd5e1" stroke-width="1.4"/>
  <text x="634" y="192" text-anchor="middle" font-size="12.5" font-weight="650" fill="#0f172a">Gemini CLI</text>
  <rect x="730" y="168" width="170" height="38" rx="10" fill="#f8fafc" stroke="#cbd5e1" stroke-width="1.4"/>
  <text x="815" y="192" text-anchor="middle" font-size="12.5" font-weight="650" fill="#0f172a">Other Agents</text>
  <path d="M 916 187 L 962 187" fill="none" stroke="#526176" stroke-width="2" marker-end="url(#arrow)"/>
  <rect x="982" y="150" width="536" height="64" rx="13" fill="#eff6ff" stroke="#2563eb" stroke-width="1.4"/>
  <text x="1250" y="177" text-anchor="middle" font-size="14" font-weight="700" fill="#2563eb">Entrada unificada do projeto</text>
  <text x="1250" y="199" text-anchor="middle" font-size="11.5" font-weight="400" font-family="ui-monospace, SFMono-Regular, Menlo, Consolas, monospace" fill="#526176">instruções · skills · commands · hook</text>
  <path d="M 800 228 L 800 258" fill="none" stroke="#2563eb" stroke-width="2" marker-end="url(#arrowBlue)"/>
  <rect x="52" y="274" width="420" height="420" rx="18" fill="#ffffff" stroke="#cbd5e1" stroke-width="1.4"/>
  <text x="78" y="306" text-anchor="start" font-size="12" font-weight="750" fill="#526176">01 · FONTE DO REPOSITÓRIO</text>
  <text x="78" y="342" text-anchor="start" font-size="22" font-weight="750" fill="#0f172a">.ownmem/</text>
  <text x="78" y="367" text-anchor="start" font-size="12.5" font-weight="400" fill="#526176">Legível · revisável no Git · reversível</text>
  <rect x="78" y="394" width="368" height="62" rx="11" fill="#f8fafc" stroke="#cbd5e1" stroke-width="1.4"/>
  <text x="94" y="419" text-anchor="start" font-size="13.5" font-weight="700" fill="#0f172a">L1 · MEMORY.md</text>
  <text x="94" y="441" text-anchor="start" font-size="11.5" font-weight="400" fill="#526176">routing index · always-small contract</text>
  <rect x="78" y="468" width="368" height="62" rx="11" fill="#f8fafc" stroke="#cbd5e1" stroke-width="1.4"/>
  <text x="94" y="493" text-anchor="start" font-size="13.5" font-weight="700" fill="#0f172a">L2 · MEMORY-&lt;area&gt;.md</text>
  <text x="94" y="515" text-anchor="start" font-size="11.5" font-weight="400" fill="#526176">area index · scoped loading</text>
  <rect x="78" y="542" width="368" height="62" rx="11" fill="#f8fafc" stroke="#cbd5e1" stroke-width="1.4"/>
  <text x="94" y="567" text-anchor="start" font-size="13.5" font-weight="700" fill="#0f172a">L3 · topic.md</text>
  <text x="94" y="589" text-anchor="start" font-size="11.5" font-weight="400" fill="#526176">one lesson · triggers · evidence</text>
  <rect x="78" y="620" width="178" height="62" rx="11" fill="#fff7ed" stroke="#9a3412" stroke-width="1.4"/>
  <text x="94" y="645" text-anchor="start" font-size="13.5" font-weight="700" fill="#9a3412">Trust receipt</text>
  <text x="94" y="667" text-anchor="start" font-size="11.5" font-weight="400" fill="#526176">hash · evidência · ciclo de vida</text>
  <rect x="268" y="620" width="178" height="62" rx="11" fill="#f0fdf4" stroke="#166534" stroke-width="1.4"/>
  <text x="284" y="645" text-anchor="start" font-size="13.5" font-weight="700" fill="#166534">Audit gates</text>
  <text x="284" y="667" text-anchor="start" font-size="11.5" font-weight="400" fill="#526176">cota · duplicatas · Schema</text>
  <rect x="500" y="274" width="666" height="420" rx="18" fill="#ffffff" stroke="#2563eb" stroke-width="1.4"/>
  <text x="526" y="306" text-anchor="start" font-size="12" font-weight="750" fill="#2563eb">02 · RUNTIME CANÔNICO</text>
  <rect x="526" y="330" width="614" height="62" rx="11" fill="#eff6ff" stroke="#2563eb" stroke-width="1.4"/>
  <text x="542" y="355" text-anchor="start" font-size="13.5" font-weight="700" fill="#2563eb">Compile</text>
  <text x="542" y="377" text-anchor="start" font-size="11.5" font-weight="400" fill="#526176">Schema · grafo · receipts · evidência viva</text>
  <path d="M 833 392 L 833 416" fill="none" stroke="#2563eb" stroke-width="2" marker-end="url(#arrowBlue)"/>
  <rect x="724" y="420" width="218" height="42" rx="11" fill="#2563eb"/>
  <text x="833" y="446" text-anchor="middle" font-size="13" font-weight="700" fill="#ffffff">Immutable snapshot</text>
  <text x="526" y="490" text-anchor="start" font-size="14" font-weight="700" fill="#0f172a">Candidate recall</text>
  <rect x="526" y="506" width="104" height="36" rx="9" fill="#f8fafc" stroke="#cbd5e1" stroke-width="1.4"/>
  <text x="578" y="529" text-anchor="middle" font-size="11.5" font-weight="650" font-family="ui-monospace, SFMono-Regular, Menlo, Consolas, monospace" fill="#0f172a">exact</text>
  <rect x="642" y="506" width="104" height="36" rx="9" fill="#f8fafc" stroke="#cbd5e1" stroke-width="1.4"/>
  <text x="694" y="529" text-anchor="middle" font-size="11.5" font-weight="650" font-family="ui-monospace, SFMono-Regular, Menlo, Consolas, monospace" fill="#0f172a">BM25F</text>
  <rect x="758" y="506" width="104" height="36" rx="9" fill="#f8fafc" stroke="#cbd5e1" stroke-width="1.4"/>
  <text x="810" y="529" text-anchor="middle" font-size="11.5" font-weight="650" font-family="ui-monospace, SFMono-Regular, Menlo, Consolas, monospace" fill="#0f172a">n-gram</text>
  <rect x="874" y="506" width="104" height="36" rx="9" fill="#f8fafc" stroke="#cbd5e1" stroke-width="1.4"/>
  <text x="926" y="529" text-anchor="middle" font-size="11.5" font-weight="650" font-family="ui-monospace, SFMono-Regular, Menlo, Consolas, monospace" fill="#0f172a">fuzzy</text>
  <rect x="990" y="506" width="104" height="36" rx="9" fill="#f8fafc" stroke="#cbd5e1" stroke-width="1.4"/>
  <text x="1042" y="529" text-anchor="middle" font-size="11.5" font-weight="650" font-family="ui-monospace, SFMono-Regular, Menlo, Consolas, monospace" fill="#0f172a">graph</text>
  <rect x="526" y="552" width="568" height="36" rx="9" fill="#eff6ff" stroke="#2563eb" stroke-width="1.4" stroke-dasharray="5 4"/>
  <text x="810" y="575" text-anchor="middle" font-size="11.5" font-weight="600" fill="#2563eb">embedding opcional: observe / peso 0 até passar A/B local</text>
  <rect x="526" y="606" width="274" height="62" rx="11" fill="#f8fafc" stroke="#cbd5e1" stroke-width="1.4"/>
  <text x="542" y="631" text-anchor="start" font-size="13.5" font-weight="700" fill="#0f172a">Fuse + rank</text>
  <text x="542" y="653" text-anchor="start" font-size="11.5" font-weight="400" fill="#526176">deterministic · dedupe · bounded</text>
  <path d="M 800 637 L 830 637" fill="none" stroke="#526176" stroke-width="2" marker-end="url(#arrow)"/>
  <rect x="846" y="606" width="294" height="62" rx="11" fill="#fff7ed" stroke="#9a3412" stroke-width="1.4"/>
  <text x="862" y="631" text-anchor="start" font-size="13.5" font-weight="700" fill="#9a3412">Four delivery gates</text>
  <text x="862" y="653" text-anchor="start" font-size="11.5" font-weight="400" fill="#526176">relevância · validade · aplicabilidade · risco</text>
  <rect x="1194" y="274" width="354" height="420" rx="18" fill="#ffffff" stroke="#cbd5e1" stroke-width="1.4"/>
  <text x="1220" y="306" text-anchor="start" font-size="12" font-weight="750" fill="#526176">03 · ENTREGA CONFIÁVEL</text>
  <rect x="1220" y="336" width="302" height="62" rx="11" fill="#eff6ff" stroke="#2563eb" stroke-width="1.4"/>
  <text x="1236" y="361" text-anchor="start" font-size="13.5" font-weight="700" fill="#2563eb">Context envelope</text>
  <text x="1236" y="383" text-anchor="start" font-size="11.5" font-weight="400" fill="#526176">≤1 tópico · 400 tokens · proveniência</text>
  <path d="M 1166 486 L 1194 486" fill="none" stroke="#2563eb" stroke-width="2" marker-end="url(#arrowBlue)"/>
  <rect x="1220" y="430" width="302" height="62" rx="11" fill="#f8fafc" stroke="#cbd5e1" stroke-width="1.4"/>
  <text x="1236" y="455" text-anchor="start" font-size="13.5" font-weight="700" fill="#0f172a">Coding agent</text>
  <text x="1236" y="477" text-anchor="start" font-size="11.5" font-weight="400" fill="#526176">verificar com código e docs atuais</text>
  <rect x="1220" y="524" width="302" height="62" rx="11" fill="#f0fdf4" stroke="#166534" stroke-width="1.4"/>
  <text x="1236" y="549" text-anchor="start" font-size="13.5" font-weight="700" fill="#166534">Honest observability</text>
  <text x="1236" y="571" text-anchor="start" font-size="11.5" font-weight="400" fill="#526176">adoção confirmada é um outcome separado</text>
  <text x="1371" y="626" text-anchor="middle" font-size="11.5" font-weight="500" font-family="ui-monospace, SFMono-Regular, Menlo, Consolas, monospace" fill="#526176">completed → delivered → consumed</text>
  <rect x="52" y="736" width="1496" height="188" rx="18" fill="#0f172a"/>
  <text x="78" y="770" text-anchor="start" font-size="12" font-weight="750" fill="#2563eb">04 · FEEDBACK LOCAL E EVOLUÇÃO LIMITADA</text>
  <rect x="78" y="792" width="274" height="96" rx="13" fill="#1e293b" stroke="#475569" stroke-width="1.4"/>
  <text x="215" y="824" text-anchor="middle" font-size="13.5" font-weight="700" fill="#f8fafc">Three ledgers</text>
  <text x="215" y="851" text-anchor="middle" font-size="11.2" font-weight="400" fill="#cbd5e1">retrieval · outcome confirmado · autoatribuição</text>
  <rect x="382" y="792" width="274" height="96" rx="13" fill="#1e293b" stroke="#475569" stroke-width="1.4"/>
  <text x="519" y="824" text-anchor="middle" font-size="13.5" font-weight="700" fill="#f8fafc">Candidate queue</text>
  <text x="519" y="851" text-anchor="middle" font-size="11.2" font-weight="400" fill="#cbd5e1">candidate ≠ memory · quarentena por padrão</text>
  <rect x="686" y="792" width="274" height="96" rx="13" fill="#1e293b" stroke="#475569" stroke-width="1.4"/>
  <text x="823" y="824" text-anchor="middle" font-size="13.5" font-weight="700" fill="#f8fafc">Risk + observation</text>
  <text x="823" y="851" text-anchor="middle" font-size="11.2" font-weight="400" fill="#cbd5e1">replay · regressão · cota · tripwire</text>
  <path d="M 352 840 L 372 840" fill="none" stroke="#2563eb" stroke-width="2" marker-end="url(#arrowBlue)"/>
  <path d="M 656 840 L 676 840" fill="none" stroke="#2563eb" stroke-width="2" marker-end="url(#arrowBlue)"/>
  <path d="M 960 840 L 980 840" fill="none" stroke="#2563eb" stroke-width="2" marker-end="url(#arrowBlue)"/>
  <rect x="990" y="792" width="532" height="96" rx="13" fill="#eff6ff" stroke="#2563eb" stroke-width="1.4"/>
  <text x="1256" y="824" text-anchor="middle" font-size="14" font-weight="750" fill="#2563eb">R0 automático · R1–R5 revisão</text>
  <text x="1256" y="851" text-anchor="middle" font-size="11.5" font-weight="500" fill="#526176">falhas isolam e restauram os bytes exatos</text>
  <text x="1256" y="874" text-anchor="middle" font-size="10.8" font-weight="500" font-family="ui-monospace, SFMono-Regular, Menlo, Consolas, monospace" fill="#526176">trust → audit → compile → tripwire → rollback receipt</text>
  <path d="M 1256 792 C 1256 718, 262 734, 262 694" fill="none" stroke="#2563eb" stroke-width="2" stroke-dasharray="7 6" marker-end="url(#arrowBlue)"/>
</svg>
